<?xml version="1.0" standalone="no"?>
<!DOCTYPE svg PUBLIC "-//W3C//DTD SVG 20010904//EN"
 "http://www.w3.org/TR/2001/REC-SVG-20010904/DTD/svg10.dtd">
<svg version="1.0" xmlns="http://www.w3.org/2000/svg"
 width="21.000000pt" height="25.000000pt" viewBox="0 0 21.000000 25.000000"
 preserveAspectRatio="xMidYMid meet">

<g transform="translate(0.000000,25.000000) scale(0.100000,-0.100000)"
fill="#000000" stroke="none">
<path d="M0 125 l0 -125 79 0 c64 0 83 4 105 21 33 26 34 62 3 93 -22 22 -23
24 -5 35 11 7 18 23 18 41 0 45 -31 60 -122 60 l-78 0 0 -125z m134 82 c10 -7
17 -22 14 -33 -2 -15 -13 -20 -51 -22 l-47 -3 0 35 c0 34 2 36 33 36 18 0 41
-6 51 -13z m10 -103 c35 -35 4 -77 -53 -72 -35 3 -36 5 -39 46 l-3 42 40 0
c23 0 46 -7 55 -16z"/>
</g>
</svg>
